<svg xmlns="http://www.w3.org/2000/svg" x="0px" y="0px"
width="96" height="96"
viewBox="0 0 172 172"
style=" fill:#000000;"><defs><linearGradient x1="86" y1="39.41806" x2="86" y2="53.29617" gradientUnits="userSpaceOnUse" id="color-1_6nsw3h9gk8M8_gr1"><stop offset="0" stop-color="#222222"></stop><stop offset="1" stop-color="#0b59a2"></stop></linearGradient><linearGradient x1="112.45524" y1="926.63649" x2="112.45524" y2="1395.64117" gradientUnits="userSpaceOnUse" id="color-2_6nsw3h9gk8M8_gr2"><stop offset="0" stop-color="#222222"></stop><stop offset="1" stop-color="#0b59a2"></stop></linearGradient><linearGradient x1="1083.5181" y1="926.63649" x2="1083.5181" y2="1395.64117" gradientUnits="userSpaceOnUse" id="color-3_6nsw3h9gk8M8_gr3"><stop offset="0" stop-color="#222222"></stop><stop offset="1" stop-color="#0b59a2"></stop></linearGradient><linearGradient x1="640.00381" y1="1024.60801" x2="640.00381" y2="1713.35302" gradientUnits="userSpaceOnUse" id="color-4_6nsw3h9gk8M8_gr4"><stop offset="0" stop-color="#222222"></stop><stop offset="1" stop-color="#0b59a2"></stop></linearGradient><linearGradient x1="1287.37905" y1="1024.60801" x2="1287.37905" y2="1713.35302" gradientUnits="userSpaceOnUse" id="color-5_6nsw3h9gk8M8_gr5"><stop offset="0" stop-color="#222222"></stop><stop offset="1" stop-color="#0b59a2"></stop></linearGradient><linearGradient x1="503.05905" y1="413.2368" x2="503.05905" y2="642.81847" gradientUnits="userSpaceOnUse" id="color-6_6nsw3h9gk8M8_gr6"><stop offset="0" stop-color="#222222"></stop><stop offset="1" stop-color="#0b59a2"></stop></linearGradient><linearGradient x1="254.06857" y1="413.2368" x2="254.06857" y2="642.81847" gradientUnits="userSpaceOnUse" id="color-7_6nsw3h9gk8M8_gr7"><stop offset="0" stop-color="#222222"></stop><stop offset="1" stop-color="#0b59a2"></stop></linearGradient></defs><g fill="none" fill-rule="nonzero" stroke="none" stroke-width="1" stroke-linecap="butt" stroke-linejoin="miter" stroke-miterlimit="10" stroke-dasharray="" stroke-dashoffset="0" font-family="none" font-weight="none" font-size="none" text-anchor="none" style="mix-blend-mode: normal"><path d="M0,172v-172h172v172z" fill="none"></path><path d="M86,172c-47.49649,0 -86,-38.50351 -86,-86v0c0,-47.49649 38.50351,-86 86,-86v0c47.49649,0 86,38.50351 86,86v0c0,47.49649 -38.50351,86 -86,86z" fill="#CCCCCC"></path><g><rect x="26.63158" y="11.55592" transform="scale(3.11238,3.11238)" width="2" height="6" fill="url(#color-1_6nsw3h9gk8M8_gr1)"></rect><path d="M29.97714,95.10167h6.22476v0v31.12381v0h-6.22476c-8.5946,0 -15.5619,-6.9673 -15.5619,-15.5619v0c0,-8.5946 6.9673,-15.5619 15.5619,-15.5619z" fill="url(#color-2_6nsw3h9gk8M8_gr2)"></path><path d="M135.7981,95.10167h6.22476c8.5946,0 15.5619,6.9673 15.5619,15.5619v0c0,8.5946 -6.9673,15.5619 -15.5619,15.5619h-6.22476v0v-31.12381z" fill="url(#color-3_6nsw3h9gk8M8_gr3)"></path><path d="M86,51.52833v0c30.94057,0 56.02286,25.08229 56.02286,56.02286v24.89905c0,3.43784 -2.78692,6.22476 -6.22476,6.22476h-99.59619c-3.43784,0 -6.22476,-2.78692 -6.22476,-6.22476v-24.89905c0,-30.94057 25.08229,-56.02286 56.02286,-56.02286z" fill="#878787"></path><circle cx="19.63158" cy="34.55592" transform="scale(3.11238,3.11238)" r="6" fill="url(#color-4_6nsw3h9gk8M8_gr4)"></circle><circle cx="35.63158" cy="34.55592" transform="scale(3.11238,3.11238)" r="6" fill="url(#color-5_6nsw3h9gk8M8_gr5)"></circle><circle cx="35.63158" cy="34.55592" transform="scale(3.11238,3.11238)" r="4" fill="#CCCCCC"></circle><circle cx="35.63158" cy="34.55592" transform="scale(3.11238,3.11238)" r="2" fill="url(#color-6_6nsw3h9gk8M8_gr6)"></circle><circle cx="19.63158" cy="34.55592" transform="scale(3.11238,3.11238)" r="4" fill="#CCCCCC"></circle><circle cx="19.63158" cy="34.55592" transform="scale(3.11238,3.11238)" r="2" fill="url(#color-7_6nsw3h9gk8M8_gr7)"></circle><circle cx="27.63158" cy="11.55592" transform="scale(3.11238,3.11238)" r="2" fill="#878787"></circle></g></g></svg>